<svg xmlns="http://www.w3.org/2000/svg" width="32" height="32" viewBox="0 0 32 32">
  <g id="Grupo_447" data-name="Grupo 447" transform="translate(0 -3283)">
    <rect id="Retângulo_685" data-name="Retângulo 685" width="32" height="32" transform="translate(0 3283)" fill="#9ba8ad" opacity="0"/>
    <g id="Iconly_Light-Outline_Chart" data-name="Iconly/Light-Outline/Chart" transform="translate(0 3283)">
      <g id="Chart">
        <path id="Combined-Shape" d="M22.975,0C28.373,0,32,3.789,32,9.429V22.571C32,28.211,28.373,32,22.975,32H9.025C3.627,32,0,28.211,0,22.571V9.429C0,3.789,3.627,0,9.025,0Zm0,2.233H9.025c-4.126,0-6.793,2.823-6.793,7.2V22.571c0,4.373,2.667,7.2,6.793,7.2H22.975c4.127,0,6.793-2.823,6.793-7.2V9.429C29.767,5.056,27.1,2.233,22.975,2.233ZM9.11,12.208a1.117,1.117,0,0,1,1.116,1.116v10.21a1.116,1.116,0,1,1-2.233,0V13.325A1.117,1.117,0,0,1,9.11,12.208Zm6.946-4.888a1.117,1.117,0,0,1,1.116,1.116v15.1a1.116,1.116,0,1,1-2.233,0V8.437A1.117,1.117,0,0,1,16.057,7.321ZM22.889,17.6a1.117,1.117,0,0,1,1.116,1.116v4.813a1.116,1.116,0,1,1-2.233,0V18.72A1.117,1.117,0,0,1,22.889,17.6Z" fill="#9ba8ad" fill-rule="evenodd"/>
      </g>
    </g>
  </g>
</svg>
