<svg id="icon-mapa-mental" xmlns="http://www.w3.org/2000/svg" xmlns:xlink="http://www.w3.org/1999/xlink" width="120" height="120" viewBox="0 0 120 120">
  <defs>
    <clipPath id="clip-path">
      <rect id="Retângulo_507" data-name="Retângulo 507" width="110" height="116" fill="none" stroke="#4b36f5" stroke-width="4"/>
    </clipPath>
  </defs>
  <g id="area_120px" data-name="area 120px" fill="none" stroke="#707070" stroke-width="1" opacity="0">
    <rect width="120" height="120" stroke="none"/>
    <rect x="0.5" y="0.5" width="119" height="119" fill="none"/>
  </g>
  <g id="icon" transform="translate(5 2)" clip-path="url(#clip-path)">
    <path id="icon-mapa-mental-2" data-name="icon-mapa-mental" d="M64.389,114.452c.951-3.99,2.711-8.74,5.059-11.8-1.318-.376-2.2-.656-2.4-.724-2.881-.921-4.4-5.289-6.693-11.893-.275-.8-.557-1.62-.852-2.447l3.768-1.335c.3.842.586,1.67.867,2.467.875,2.531,1.7,4.92,2.5,6.7.994,2.226,1.561,2.649,1.664,2.713,5.865,1.876,16.482,4.339,20.082,2.955,2.719-1.044,2.871-2.95,2.783-5.151a9.023,9.023,0,0,1-.01-.911,7.526,7.526,0,0,1,1.875-4.4,4.16,4.16,0,0,0,1.168-3.531l3.975-.443a8.042,8.042,0,0,1-1.955,6.393,3.788,3.788,0,0,0-1.068,2.2c-.006.1,0,.33.014.542a11.269,11.269,0,0,1-.521,4.383,7.814,7.814,0,0,1-4.826,4.658,12.719,12.719,0,0,1-4.467.66,43.312,43.312,0,0,1-7.967-.916c-1.223-.236-2.414-.5-3.527-.764a10.762,10.762,0,0,0-2.574,3.413,34.855,34.855,0,0,0-2.994,8.165Zm-54.141-.926c6.895-14.444,4.215-26.884,1.113-36.107a47.98,47.98,0,0,0-3.537-7.342C4.338,63.7,0,55.777,0,43.47A37.558,37.558,0,0,1,3,29.2a43.992,43.992,0,0,1,9.3-13.917C18.93,8.56,31.1.448,51.441.016a53.915,53.915,0,0,1,22.4,3.939A42.2,42.2,0,0,1,88.281,14.09a46.348,46.348,0,0,1,11.09,21.062,31.266,31.266,0,0,1-.23,13.655,12.335,12.335,0,0,0-.324,2.029c.01.191.2,1.349,2.717,5.328,1.6,2.531,3.547,5.27,4.842,7.081.709,1,1.221,1.714,1.486,2.133A6.373,6.373,0,0,1,108.91,70.3a6.235,6.235,0,0,1-3.121,3.91c-1.2.719-2.133,1.2-2.812,1.541-.127.064-.266.133-.389.2.191.448.521,1.152,1.1,2.24a3.889,3.889,0,0,1-.109,3.856,3.837,3.837,0,0,1-3.309,1.876H88.6v-4h11.48c-1.576-2.994-1.951-4.176-1.65-5.229a3.066,3.066,0,0,1,1.3-1.709,13.052,13.052,0,0,1,1.428-.8c.67-.34,1.5-.759,2.574-1.408a2.484,2.484,0,0,0,1.281-1.389,2.706,2.706,0,0,0-.518-1.852c-.221-.34-.758-1.1-1.383-1.975-5.121-7.2-8.121-11.868-8.293-14.464a12.515,12.515,0,0,1,.4-3.1,27.38,27.38,0,0,0,.232-12.025A42.219,42.219,0,0,0,85.352,16.813c-8.174-8.8-19.555-13.1-33.826-12.8-19,.4-30.266,7.88-36.367,14.075C8.17,25.19,4,34.674,4,43.47c0,11.282,3.9,18.4,7.338,24.687a51.392,51.392,0,0,1,3.813,7.987A58.515,58.515,0,0,1,18.57,94.277a45.649,45.649,0,0,1-.99,10.169,48.988,48.988,0,0,1-3.723,10.8Zm26.863.861V72.756l-7.752-7.821a9.315,9.315,0,0,1-5.092,1.508A9.467,9.467,0,1,1,32.182,62.1l8.928,9.013v43.276ZM18.846,56.953a5.422,5.422,0,1,0,5.422-5.491A5.463,5.463,0,0,0,18.846,56.953ZM49.486,99.4V28.772a9.421,9.421,0,1,1,4,0V99.4Zm-3.422-79.91A5.422,5.422,0,1,0,51.486,14,5.466,5.466,0,0,0,46.064,19.492Zm13.32,59.932V73.608L70.787,62.1A9.41,9.41,0,1,1,78.7,66.443a9.314,9.314,0,0,1-5.092-1.507L63.383,75.253v4.171ZM73.277,56.953A5.424,5.424,0,1,0,78.7,51.462,5.466,5.466,0,0,0,73.277,56.953ZM59.385,61.946V46.139l8.93-9.013a9.409,9.409,0,1,1,7.912,4.344,9.323,9.323,0,0,1-5.092-1.507l-7.752,7.825V61.946ZM70.8,31.981a5.422,5.422,0,1,0,5.422-5.491A5.464,5.464,0,0,0,70.8,31.981ZM39.588,61.946V47.788l-7.754-7.827A9.314,9.314,0,0,1,26.74,41.47a9.473,9.473,0,1,1,7.916-4.342l8.93,9.011V61.946ZM21.318,31.981a5.422,5.422,0,1,0,5.422-5.491A5.462,5.462,0,0,0,21.318,31.981Z" transform="translate(0.477 0.498)" fill="#23d29a"/>
  </g>
</svg>
