<svg xmlns="http://www.w3.org/2000/svg" width="13.5" height="13.5" viewBox="0 0 13.5 13.5">
  <g id="Icon_feather-external-link" data-name="Icon feather-external-link" transform="translate(-3.75 -3.75)">
    <path id="Path_484" data-name="Path 484" d="M13.167,19.75H5.833A2.086,2.086,0,0,1,3.75,17.667V10.333A2.086,2.086,0,0,1,5.833,8.25h4a.75.75,0,1,1,0,1.5h-4a.584.584,0,0,0-.583.583v7.333a.584.584,0,0,0,.583.583h7.333a.584.584,0,0,0,.583-.583v-4a.75.75,0,0,1,1.5,0v4A2.086,2.086,0,0,1,13.167,19.75Z" transform="translate(0 -2.5)" fill="#0159ef"/>
    <path id="Path_485" data-name="Path 485" d="M26.5,9.25a.75.75,0,0,1-.75-.75V5.25H22.5a.75.75,0,0,1,0-1.5h4a.75.75,0,0,1,.75.75v4A.75.75,0,0,1,26.5,9.25Z" transform="translate(-10 0)" fill="#0159ef"/>
    <path id="Path_486" data-name="Path 486" d="M15,12.583a.75.75,0,0,1-.53-1.28L21.8,3.97A.75.75,0,1,1,22.864,5.03L15.53,12.364A.748.748,0,0,1,15,12.583Z" transform="translate(-5.833 0)" fill="#0159ef"/>
  </g>
</svg>
