<svg xmlns="http://www.w3.org/2000/svg" width="49" height="49" viewBox="0 0 49 49">
  <path id="icon-target" d="M23,47V42.949A18.993,18.993,0,0,1,5.051,25H1a1,1,0,1,1,0-2H5.051A18.993,18.993,0,0,1,23,5.051V1a1,1,0,1,1,2,0V5.051A18.993,18.993,0,0,1,42.949,23H47a1,1,0,0,1,0,2H42.949A18.993,18.993,0,0,1,25,42.949V47a1,1,0,0,1-2,0Zm2-9v2.949A16.994,16.994,0,0,0,40.949,25H38a1,1,0,1,1,0-2h2.949A16.993,16.993,0,0,0,25,7.052V10a1,1,0,1,1-2,0V7.052A16.993,16.993,0,0,0,7.051,23H10a1,1,0,1,1,0,2H7.051A16.994,16.994,0,0,0,23,40.949V38a1,1,0,1,1,2,0Zm-7.259-5.025a.924.924,0,0,1-.346-.916l1.136-5.653-4.4-4.343a.923.923,0,0,1,.57-1.576l5.925-.508,2.54-5.648a.922.922,0,0,1,1.683,0l2.54,5.648,5.925.508a.923.923,0,0,1,.57,1.576l-4.4,4.343,1.135,5.653a.923.923,0,0,1-1.323,1.005L24,30.375l-5.284,2.688a.915.915,0,0,1-.417.1A.927.927,0,0,1,17.741,32.975Zm6.681-4.457,4,2.036-.859-4.274a.923.923,0,0,1,.258-.839l3.333-3.286-4.47-.383a.924.924,0,0,1-.764-.542L24,16.959l-1.921,4.27a.925.925,0,0,1-.763.542l-4.471.383,3.333,3.286a.923.923,0,0,1,.258.839l-.859,4.274,4-2.036a.924.924,0,0,1,.418-.1A.934.934,0,0,1,24.422,28.518Z" transform="translate(0.5 0.5)" fill="#23d29a" stroke="rgba(0,0,0,0)" stroke-miterlimit="10" stroke-width="1"/>
</svg>
