<svg xmlns="http://www.w3.org/2000/svg" width="51" height="45.782" viewBox="0 0 51 45.782">
  <path id="icon-bolt" d="M19.312,44.52a1.078,1.078,0,0,1-.71-1.2l3.045-15.79L12.066,28.8a1.193,1.193,0,0,1-1.147-.5,1.03,1.03,0,0,1,.014-1.183L29.285,1.292a1.207,1.207,0,0,1,1.4-.407,1.078,1.078,0,0,1,.71,1.2l-3.045,15.79L37.934,16.6a1.2,1.2,0,0,1,1.147.5,1.03,1.03,0,0,1-.014,1.183L20.715,44.113a1.183,1.183,0,0,1-.969.486A1.232,1.232,0,0,1,19.312,44.52Zm4.6-19.038a1.038,1.038,0,0,1,.309.948l-2.334,12.1L35.691,19.1l-8.606,1.146a1.209,1.209,0,0,1-1-.323,1.039,1.039,0,0,1-.309-.949l2.334-12.1-13.8,19.427,8.606-1.146a1.227,1.227,0,0,1,.164-.011A1.193,1.193,0,0,1,23.915,25.483Zm9.176,12.86,1.732-1,3.5,6.063-1.733,1Zm7.267-6.312,1-1.732,6.062,3.5-1,1.732ZM2.581,33.8l6.062-3.5,1,1.732-6.063,3.5ZM43,23.194v-2h7v2Zm-43,0v-2H7v2ZM40.357,12.355l6.063-3.5,1,1.732-6.062,3.5ZM2.581,10.588l1-1.732,6.063,3.5-1,1.732ZM11.677,1,13.41,0l3.5,6.063-1.732,1Z" transform="translate(0.5 0.683)" fill="#23d29a" stroke="rgba(0,0,0,0)" stroke-miterlimit="10" stroke-width="1"/>
</svg>
