<svg xmlns="http://www.w3.org/2000/svg" width="41.012" height="49" viewBox="0 0 41.012 49">
  <path id="icon-shield" d="M19.748,47.966C18.69,47.685,0,37.8,0,28.009V9A1,1,0,0,1,1,8C5.557,8,17.6,2.689,19.2.424a1,1,0,0,1,1.635,0C22.382,2.621,33.906,8,39.011,8a1,1,0,0,1,1,1V29.008c0,8.112-18.87,18.725-19.748,18.958a.99.99,0,0,1-.516,0ZM2,9.942V28.009c0,7.5,15.044,16.608,18,17.915,2.593-1.244,18.013-10.779,18.013-16.915V9.952c-5.339-.506-14.782-4.685-18-7.51C16.716,5.3,6.947,9.4,2,9.942ZM21.489,32.833a.96.96,0,0,1,1.357-1.358,4.989,4.989,0,0,0,3.127,1.584.96.96,0,0,1,0,1.92A6.837,6.837,0,0,1,21.489,32.833Zm-8.468.993a.962.962,0,0,1,.788-1.106c3.373-.565,5.082-3.107,5.082-7.552v-3.84a.96.96,0,1,1,1.92,0v3.84c0,5.446-2.312,8.711-6.686,9.446a.892.892,0,0,1-.159.013A.961.961,0,0,1,13.021,33.826Zm-1.939-3.98a.959.959,0,0,1,.96-.96c1.938,0,2.879-.942,2.879-2.88V21.189a.96.96,0,1,1,1.92,0V26a4.411,4.411,0,0,1-4.8,4.8A.959.959,0,0,1,11.082,29.845Zm11.964-3.8V21.087a2.862,2.862,0,0,0-2.88-2.836,2.913,2.913,0,0,0-1.861.671.96.96,0,1,1-1.23-1.474,4.832,4.832,0,0,1,3.092-1.117,4.783,4.783,0,0,1,4.8,4.755v4.955a2.652,2.652,0,0,0,2.879,2.837.96.96,0,1,1,0,1.919A4.571,4.571,0,0,1,23.046,26.042ZM11.082,25.7V20.764A8.509,8.509,0,0,1,15.407,13.4a.959.959,0,1,1,.948,1.668A6.588,6.588,0,0,0,13,20.764V25.7a.96.96,0,1,1-1.92,0Zm15.846-.038V20.726a6.66,6.66,0,0,0-6.72-6.582c-.2,0-.389.008-.58.024a.96.96,0,0,1-.157-1.914c.242-.019.49-.03.737-.03a8.582,8.582,0,0,1,8.64,8.5v4.937a.96.96,0,1,1-1.92,0Z" transform="translate(0.5 0.5)" fill="#23d29a" stroke="rgba(0,0,0,0)" stroke-miterlimit="10" stroke-width="1"/>
</svg>
