<svg id="icon-mapa-mental" xmlns="http://www.w3.org/2000/svg" xmlns:xlink="http://www.w3.org/1999/xlink" width="96" height="96" viewBox="0 0 96 96">
  <defs>
    <clipPath id="clip-path">
      <rect id="Retângulo_507" data-name="Retângulo 507" width="88" height="92.8" fill="none" stroke="#4b36f5" stroke-width="4"/>
    </clipPath>
  </defs>
  <g id="area_120px" data-name="area 120px" fill="none" stroke="#707070" stroke-width="1" opacity="0">
    <rect width="96" height="96" stroke="none"/>
    <rect x="0.5" y="0.5" width="95" height="95" fill="none"/>
  </g>
  <g id="icon" transform="translate(4 1.6)" clip-path="url(#clip-path)">
    <path id="icon-mapa-mental-2" data-name="icon-mapa-mental" d="M51.511,91.562a26.925,26.925,0,0,1,4.047-9.444c-1.055-.3-1.758-.525-1.923-.579-2.3-.737-3.519-4.231-5.355-9.514-.22-.638-.445-1.3-.681-1.958L50.613,69c.241.673.469,1.336.694,1.973.7,2.025,1.362,3.936,2,5.359.8,1.78,1.248,2.12,1.331,2.17C59.327,80,67.82,81.973,70.7,80.866c2.175-.835,2.3-2.36,2.227-4.121a7.22,7.22,0,0,1-.008-.729,6.021,6.021,0,0,1,1.5-3.522,3.328,3.328,0,0,0,.934-2.825l3.18-.355a6.434,6.434,0,0,1-1.564,5.114,3.03,3.03,0,0,0-.855,1.761c0,.079,0,.264.011.434a9.016,9.016,0,0,1-.417,3.506,6.251,6.251,0,0,1-3.861,3.727,10.175,10.175,0,0,1-3.573.528,34.649,34.649,0,0,1-6.373-.733c-.978-.189-1.931-.4-2.822-.611a8.61,8.61,0,0,0-2.059,2.73,27.884,27.884,0,0,0-2.4,6.532ZM8.2,90.821c5.516-11.555,3.372-21.507.891-28.886a38.384,38.384,0,0,0-2.83-5.873C3.47,50.963,0,44.621,0,34.776A30.047,30.047,0,0,1,2.4,23.363,35.193,35.193,0,0,1,9.845,12.229C15.144,6.848,24.878.359,41.153.013A43.132,43.132,0,0,1,59.075,3.164a33.757,33.757,0,0,1,11.55,8.108A37.078,37.078,0,0,1,79.5,28.122a25.013,25.013,0,0,1-.184,10.924,9.868,9.868,0,0,0-.259,1.623c.008.153.161,1.079,2.173,4.263,1.281,2.025,2.838,4.216,3.873,5.665.567.8.977,1.371,1.189,1.706a5.1,5.1,0,0,1,.839,3.94,4.988,4.988,0,0,1-2.5,3.128c-.958.575-1.706.957-2.25,1.233-.1.052-.213.106-.311.158.153.359.417.922.883,1.792a3.111,3.111,0,0,1-.088,3.085,3.07,3.07,0,0,1-2.647,1.5H70.881v-3.2h9.184c-1.261-2.4-1.561-3.341-1.32-4.184a2.453,2.453,0,0,1,1.041-1.367,10.441,10.441,0,0,1,1.142-.638c.536-.272,1.2-.607,2.059-1.127a1.987,1.987,0,0,0,1.025-1.111,2.165,2.165,0,0,0-.414-1.481c-.177-.272-.606-.879-1.106-1.58C78.4,46.7,76,42.959,75.858,40.882A10.012,10.012,0,0,1,76.18,38.4a21.9,21.9,0,0,0,.186-9.62,33.776,33.776,0,0,0-8.084-15.33C61.742,6.41,52.638,2.967,41.22,3.211c-15.2.323-24.212,6.3-29.094,11.26C6.536,20.152,3.2,27.739,3.2,34.776,3.2,43.8,6.316,49.5,9.069,54.525a41.114,41.114,0,0,1,3.05,6.39,46.812,46.812,0,0,1,2.738,14.506,36.519,36.519,0,0,1-.792,8.135A39.19,39.19,0,0,1,11.086,92.2Zm21.491.689V58.2l-6.2-6.257a7.452,7.452,0,0,1-4.073,1.206,7.573,7.573,0,1,1,6.331-3.475l7.142,7.21V91.51ZM15.077,45.563a4.338,4.338,0,1,0,4.338-4.393A4.37,4.37,0,0,0,15.077,45.563ZM39.589,79.522v-56.5a7.537,7.537,0,1,1,3.2,0v56.5ZM36.852,15.594A4.338,4.338,0,1,0,41.189,11.2,4.373,4.373,0,0,0,36.852,15.594ZM47.508,63.539V58.886l9.122-9.205a7.528,7.528,0,1,1,6.333,3.473,7.452,7.452,0,0,1-4.073-1.205L50.706,60.2v3.337ZM58.622,45.563a4.339,4.339,0,1,0,4.341-4.393A4.373,4.373,0,0,0,58.622,45.563ZM47.508,49.557V36.911l7.144-7.21a7.527,7.527,0,1,1,6.33,3.475,7.458,7.458,0,0,1-4.073-1.205l-6.2,6.26V49.557Zm9.136-23.973a4.338,4.338,0,1,0,4.338-4.393A4.371,4.371,0,0,0,56.644,25.584ZM31.67,49.557V38.231l-6.2-6.262a7.452,7.452,0,0,1-4.075,1.207A7.578,7.578,0,1,1,27.725,29.7l7.144,7.209V49.557ZM17.055,25.584a4.338,4.338,0,1,0,4.337-4.393A4.37,4.37,0,0,0,17.055,25.584Z" transform="translate(0.381 0.398)" fill="#23d29a"/>
  </g>
</svg>
