<svg xmlns="http://www.w3.org/2000/svg" width="150" height="24.019" viewBox="0 0 150 24.019">
  <g id="Grupo_14308" data-name="Grupo 14308" transform="translate(0 0)">
    <path id="Caminho_759" data-name="Caminho 759" d="M428.219,11.155h-8.594a.46.46,0,0,1-.465-.4.447.447,0,0,1,.445-.491h15.1a.447.447,0,0,0,.447-.447V3.447A.447.447,0,0,0,434.707,3H419.271A7.266,7.266,0,0,0,412,10.262v.894a7.154,7.154,0,0,0,7.159,7.15h8.594a.46.46,0,0,1,.465.4.447.447,0,0,1-.445.491h-15.1a.447.447,0,0,0-.447.447V25.9a.447.447,0,0,0,.447.447h15.548a7.154,7.154,0,0,0,7.159-7.15v-.894a7.154,7.154,0,0,0-7.159-7.15" transform="translate(-365.915 -2.665)" fill="#fff"/>
    <path id="Caminho_760" data-name="Caminho 760" d="M1148.219,11.155h-8.594a.46.46,0,0,1-.465-.4.447.447,0,0,1,.445-.491h15.1a.447.447,0,0,0,.447-.447V3.447a.447.447,0,0,0-.447-.447H1139.27A7.266,7.266,0,0,0,1132,10.262v.894a7.155,7.155,0,0,0,7.159,7.15h8.594a.46.46,0,0,1,.464.4.447.447,0,0,1-.445.491h-15.1a.447.447,0,0,0-.448.447V25.9a.447.447,0,0,0,.448.447h15.548a7.154,7.154,0,0,0,7.159-7.15v-.894a7.154,7.154,0,0,0-7.159-7.15" transform="translate(-1005.378 -2.665)" fill="#fff"/>
    <path id="Caminho_761" data-name="Caminho 761" d="M652.49,3H651.6a6.931,6.931,0,0,0-6.935,6.926v8.695a.46.46,0,0,1-.4.464.447.447,0,0,1-.492-.445V9.926A6.931,6.931,0,0,0,636.83,3h-.895A6.931,6.931,0,0,0,629,9.926V25.455a.894.894,0,0,0,.895.894h5.145a.894.894,0,0,0,.895-.894V10.616a.46.46,0,0,1,.4-.464.447.447,0,0,1,.491.445v8.826a6.931,6.931,0,0,0,6.935,6.926h.895a6.931,6.931,0,0,0,6.935-6.926V10.616a.46.46,0,0,1,.4-.464.447.447,0,0,1,.491.445V25.9a.447.447,0,0,0,.447.447h6.04a.447.447,0,0,0,.447-.447V9.926A6.931,6.931,0,0,0,652.49,3" transform="translate(-558.642 -2.665)" fill="#fff"/>
    <path id="Caminho_762" data-name="Caminho 762" d="M201.129,0a12.01,12.01,0,1,0,11.919,11.9A12.017,12.017,0,0,0,201.129,0m3.032,8.457-5.543,7.62a.455.455,0,0,1-.551.155.447.447,0,0,1-.18-.671l5.543-7.62a.455.455,0,0,1,.551-.156.447.447,0,0,1,.18.671" transform="translate(-167.859)" fill="#fff"/>
    <path id="Caminho_763" data-name="Caminho 763" d="M921.129,0a12.01,12.01,0,1,0,11.919,11.9A12.017,12.017,0,0,0,921.129,0m3.032,8.457-5.543,7.62a.455.455,0,0,1-.551.155.447.447,0,0,1-.18-.671l5.543-7.62a.455.455,0,0,1,.551-.156.447.447,0,0,1,.18.671" transform="translate(-807.322)" fill="#fff"/>
    <path id="Caminho_764" data-name="Caminho 764" d="M16.667,14.679v-.01l5.721-7.864a5.333,5.333,0,0,0,1.02-3.372A.45.45,0,0,0,22.959,3H16.168a.455.455,0,0,0-.364.182L9.5,11.6a.447.447,0,0,1-.724-.525L14.3,3.715A.447.447,0,0,0,13.94,3H.447A.447.447,0,0,0,0,3.447V25.9a.447.447,0,0,0,.447.447H22.96a.449.449,0,0,0,.448-.433,5.333,5.333,0,0,0-1.02-3.372Z" transform="translate(0 -2.665)" fill="#fff"/>
  </g>
</svg>
