<svg id="Layer_2" data-name="Layer 2" xmlns="http://www.w3.org/2000/svg" width="40" height="40" viewBox="0 0 40 40">
  <g id="invisible_box" data-name="invisible box">
    <rect id="Retângulo_2484" data-name="Retângulo 2484" width="40" height="40" fill="none"/>
  </g>
  <g id="icons_Q2" data-name="icons Q2" transform="translate(1.667 1.666)">
    <path id="Caminho_857" data-name="Caminho 857" d="M20.333,5.333a15,15,0,1,1-15,15,15,15,0,0,1,15-15m0-3.333A18.25,18.25,0,1,0,33.322,7.345,18.333,18.333,0,0,0,20.333,2Z" transform="translate(-2 -2)" fill="#db2531"/>
    <path id="Caminho_858" data-name="Caminho 858" d="M24.834,22.493,29.5,17.91a1.75,1.75,0,0,0,.167-2.25,1.583,1.583,0,0,0-2.5-.167L22.5,20.16l-4.667-4.667a1.583,1.583,0,0,0-2.5.167,1.75,1.75,0,0,0,.167,2.25l4.667,4.583L15.5,27.077a1.75,1.75,0,0,0-.167,2.25,1.583,1.583,0,0,0,2.5.167L22.5,24.827l4.667,4.667a1.583,1.583,0,0,0,2.5-.167,1.75,1.75,0,0,0-.167-2.25Z" transform="translate(-4.167 -4.16)" fill="#db2531"/>
  </g>
</svg>
