<svg xmlns="http://www.w3.org/2000/svg" width="25" height="20" viewBox="0 0 25 20">
  <g id="Iconly_Light-Outline_Show" data-name="Iconly/Light-Outline/Show" transform="translate(-2 -4)">
    <g id="Show" transform="translate(2 4.001)">
      <path id="Combined-Shape" d="M12.5,0c5.17,0,9.812,3.6,12.42,9.632a.917.917,0,0,1,0,.735C22.317,16.4,17.673,20,12.5,20H12.5c-5.17,0-9.812-3.6-12.42-9.633a.928.928,0,0,1,0-.735C2.684,3.6,7.327,0,12.5,0Zm0,1.863C8.2,1.864,4.287,4.9,1.962,10,4.287,15.1,8.2,18.136,12.5,18.137S20.712,15.1,23.037,10C20.712,4.9,16.8,1.864,12.5,1.863Zm0,3.279A4.857,4.857,0,1,1,7.611,10,4.88,4.88,0,0,1,12.5,5.143Zm0,1.863a2.994,2.994,0,1,0,3.015,3A3.007,3.007,0,0,0,12.5,7.005Z" transform="translate(0 -0.001)" fill="#005c5a" fill-rule="evenodd"/>
    </g>
  </g>
</svg>
