<svg id="icon-mapa-mental" xmlns="http://www.w3.org/2000/svg" xmlns:xlink="http://www.w3.org/1999/xlink" width="356" height="356" viewBox="0 0 356 356">
  <defs>
    <clipPath id="clip-path">
      <rect id="Retângulo_507" data-name="Retângulo 507" width="212.997" height="333.293" fill="none" stroke="#4b36f5" stroke-width="4"/>
    </clipPath>
  </defs>
  <g id="area_120px" data-name="area 120px" fill="none" stroke="#707070" stroke-width="1" opacity="0">
    <rect width="356" height="356" stroke="none"/>
    <rect x="0.5" y="0.5" width="355" height="355" fill="none"/>
  </g>
  <g id="icon" transform="translate(8.367 11.211)" clip-path="url(#clip-path)">
    <path id="icon-mapa-mental-2" data-name="icon-mapa-mental" d="M124.678,328.846c1.842-11.465,5.249-25.113,9.8-33.917-2.553-1.08-4.255-1.886-4.656-2.079-5.578-2.646-8.517-15.2-12.961-34.17-.533-2.292-1.078-4.655-1.649-7.032l7.3-3.836c.582,2.419,1.135,4.8,1.679,7.088,1.694,7.273,3.3,14.136,4.833,19.245,1.925,6.395,3.022,7.612,3.222,7.795,11.357,5.39,31.916,12.466,38.886,8.491,5.264-3,5.559-8.477,5.389-14.8-.03-.976-.049-1.81-.019-2.618a27.564,27.564,0,0,1,3.631-12.649c1.585-3.1,2.632-5.152,2.262-10.146l7.7-1.274A30.788,30.788,0,0,1,186.3,267.31c-1.3,2.534-1.986,3.976-2.069,6.324-.011.283.008.948.026,1.557a47.323,47.323,0,0,1-1.01,12.593c-1.535,6.226-4.682,10.724-9.345,13.384a17.44,17.44,0,0,1-8.649,1.9,57.922,57.922,0,0,1-15.426-2.632c-2.368-.679-4.674-1.434-6.83-2.194-1.29,1.445-3.071,4.537-4.985,9.807a133.989,133.989,0,0,0-5.8,23.46Zm-104.835-2.66c13.35-41.5,8.161-77.243,2.156-103.744-1.509-6.622-3.979-13.328-6.849-21.095C8.4,183.036,0,160.258,0,124.9A153.888,153.888,0,0,1,5.817,83.907,141.68,141.68,0,0,1,23.83,43.921C36.654,24.594,60.216,1.288,99.608.045c16.1-.511,30.694,3.3,43.379,11.319,10.688,6.776,20.1,16.569,27.956,29.119,15.479,24.7,20.35,52.565,21.474,60.517a132.31,132.31,0,0,1-.446,39.235,51.536,51.536,0,0,0-.628,5.831c.019.55.39,3.875,5.261,15.309,3.1,7.273,6.868,15.14,9.375,20.345,1.373,2.859,2.364,4.924,2.878,6.128A25.7,25.7,0,0,1,210.887,202a18.425,18.425,0,0,1-6.044,11.235c-2.318,2.065-4.13,3.437-5.446,4.428-.246.185-.514.382-.753.567.371,1.288,1.01,3.311,2.137,6.437a15.973,15.973,0,0,1-.212,11.08c-1.361,3.367-3.767,5.39-6.407,5.39h-22.6v-11.49h22.23c-3.052-8.6-3.778-12-3.2-15.025a9.279,9.279,0,0,1,2.519-4.91,24.892,24.892,0,0,1,2.765-2.292c1.3-.976,2.9-2.18,4.985-4.046a6.922,6.922,0,0,0,2.481-3.99,10.642,10.642,0,0,0-1-5.32c-.427-.976-1.467-3.157-2.678-5.673-9.916-20.674-15.725-34.1-16.058-41.558a52.569,52.569,0,0,1,.779-8.914,115.85,115.85,0,0,0,.45-34.552c-1.021-7.217-5.454-32.514-19.568-55.057-15.827-25.284-37.865-37.649-65.5-36.774-36.8,1.162-58.6,22.641-70.419,40.441C15.82,72.375,7.742,99.626,7.742,124.9c0,32.416,7.545,52.874,14.209,70.93,2.908,7.9,5.665,15.365,7.382,22.949,4.357,19.187,6.463,35.741,6.626,52.1a192.79,192.79,0,0,1-1.917,29.218,190.7,190.7,0,0,1-7.208,31.044Zm52.016,2.475V209.044L56.85,186.571A14.2,14.2,0,0,1,46.99,190.9c-10.06,0-18.252-12.225-18.252-27.265s8.192-27.267,18.252-27.267S65.23,148.6,65.23,163.639a37.431,37.431,0,0,1-2.916,14.784l17.287,25.9V328.661ZM36.492,163.639c0,8.7,4.712,15.775,10.5,15.775s10.5-7.074,10.5-15.775-4.708-15.777-10.5-15.777S36.492,154.938,36.492,163.639ZM95.822,285.6V82.667C87.616,80,81.444,69.059,81.444,56.006c0-15.028,8.192-27.267,18.252-27.267s18.24,12.239,18.24,27.267c0,13.053-6.165,24-14.371,26.661V285.6ZM89.2,56.006c0,8.7,4.708,15.789,10.5,15.789s10.5-7.088,10.5-15.789-4.712-15.777-10.5-15.777S89.2,47.316,89.2,56.006Zm25.793,172.2V211.49l22.079-33.062a37.383,37.383,0,0,1-2.923-14.79c0-15.042,8.184-27.267,18.252-27.267S170.64,148.6,170.64,163.639,162.456,190.9,152.4,190.9a14.2,14.2,0,0,1-9.859-4.329l-19.806,29.644V228.2Zm26.9-64.563c0,8.7,4.72,15.775,10.506,15.775s10.5-7.074,10.5-15.775-4.708-15.777-10.5-15.777S141.89,154.938,141.89,163.639Zm-26.9,14.346V132.567l17.291-25.9a37.365,37.365,0,0,1-2.92-14.784c0-15.039,8.18-27.279,18.24-27.279s18.252,12.239,18.252,27.279-8.192,27.265-18.252,27.265a14.208,14.208,0,0,1-9.859-4.329l-15.01,22.483v40.68Zm22.113-86.1c0,8.7,4.712,15.777,10.5,15.777s10.5-7.076,10.5-15.777S153.4,76.11,147.6,76.11,137.1,83.186,137.1,91.887Zm-60.446,86.1v-40.68L61.641,114.817a14.2,14.2,0,0,1-9.863,4.335c-10.06,0-18.244-12.222-18.244-27.265s8.184-27.279,18.244-27.279S70.03,76.848,70.03,91.887a37.383,37.383,0,0,1-2.923,14.79L84.4,132.567v45.419ZM41.28,91.887c0,8.7,4.708,15.777,10.5,15.777s10.5-7.076,10.5-15.777-4.7-15.777-10.5-15.777S41.28,83.186,41.28,91.887Z" transform="translate(0.923 1.431)" fill="#23d29a"/>
  </g>
</svg>
