<svg id="Layer_2" data-name="Layer 2" xmlns="http://www.w3.org/2000/svg" width="40" height="40" viewBox="0 0 40 40">
  <g id="invisible_box" data-name="invisible box">
    <rect id="Retângulo_2483" data-name="Retângulo 2483" width="40" height="40" fill="none"/>
  </g>
  <g id="icons_Q2" data-name="icons Q2" transform="translate(1.667 1.666)">
    <path id="Caminho_855" data-name="Caminho 855" d="M20.333,5.333a15,15,0,1,1-15,15,15,15,0,0,1,15-15m0-3.333A18.25,18.25,0,1,0,33.322,7.345,18.333,18.333,0,0,0,20.333,2Z" transform="translate(-2 -2)" fill="#1fad2d"/>
    <path id="Caminho_856" data-name="Caminho 856" d="M17.5,29.533l-5-4.917a1.75,1.75,0,0,1-.167-2.25,1.583,1.583,0,0,1,2.5-.167l3.833,3.833,10.5-10.5A1.667,1.667,0,0,1,31.5,17.867L19.834,29.533a1.583,1.583,0,0,1-2.333,0Z" transform="translate(-3.667 -4.2)" fill="#1fad2d"/>
  </g>
</svg>
