<svg xmlns="http://www.w3.org/2000/svg" xmlns:xlink="http://www.w3.org/1999/xlink" width="253" height="40" viewBox="0 0 253 40">
  <defs>
    <clipPath id="clip-path">
      <rect id="Retângulo_1511" data-name="Retângulo 1511" width="253" height="40" fill="#fff"/>
    </clipPath>
  </defs>
  <g id="Grupo_623" data-name="Grupo 623" clip-path="url(#clip-path)">
    <path id="Caminho_759" data-name="Caminho 759" d="M439.374,16.764h-14.5a.777.777,0,0,1-.784-.68.755.755,0,0,1,.751-.828h25.486a.755.755,0,0,0,.755-.754V3.754A.755.755,0,0,0,450.323,3H424.271A12.263,12.263,0,0,0,412,15.256v1.508a12.075,12.075,0,0,0,12.082,12.067h14.5a.777.777,0,0,1,.784.68.755.755,0,0,1-.752.828H413.133a.755.755,0,0,0-.755.754V41.652a.755.755,0,0,0,.755.754h26.241a12.075,12.075,0,0,0,12.082-12.067V28.831a12.075,12.075,0,0,0-12.082-12.067" transform="translate(-334.314 -2.917)" fill="#fff"/>
    <path id="Caminho_760" data-name="Caminho 760" d="M1159.374,16.764h-14.5a.777.777,0,0,1-.784-.68.755.755,0,0,1,.752-.828h25.486a.755.755,0,0,0,.755-.754V3.754a.755.755,0,0,0-.755-.754h-26.052A12.263,12.263,0,0,0,1132,15.256v1.508a12.075,12.075,0,0,0,12.082,12.067h14.5a.777.777,0,0,1,.784.68.755.755,0,0,1-.752.828h-25.486a.755.755,0,0,0-.755.754V41.652a.755.755,0,0,0,.755.754h26.241a12.075,12.075,0,0,0,12.082-12.067V28.831a12.075,12.075,0,0,0-12.082-12.067" transform="translate(-918.389 -2.917)" fill="#fff"/>
    <path id="Caminho_761" data-name="Caminho 761" d="M668.645,3h-1.51a11.7,11.7,0,0,0-11.7,11.69V29.364a.776.776,0,0,1-.681.783.755.755,0,0,1-.829-.751V14.69A11.7,11.7,0,0,0,642.215,3H640.7A11.7,11.7,0,0,0,629,14.69V40.9a1.509,1.509,0,0,0,1.51,1.508h8.684A1.509,1.509,0,0,0,640.7,40.9V15.854a.776.776,0,0,1,.681-.783.755.755,0,0,1,.829.751v14.9a11.7,11.7,0,0,0,11.7,11.69h1.51a11.7,11.7,0,0,0,11.7-11.69V15.854a.776.776,0,0,1,.681-.783.755.755,0,0,1,.829.751V41.652a.755.755,0,0,0,.755.754h10.194a.755.755,0,0,0,.755-.754V14.69A11.7,11.7,0,0,0,668.645,3" transform="translate(-510.348 -2.917)" fill="#fff"/>
    <path id="Caminho_762" data-name="Caminho 762" d="M209.471,0a20.269,20.269,0,1,0,20.117,20.092A20.282,20.282,0,0,0,209.471,0m5.118,14.273-9.356,12.861a.768.768,0,0,1-.93.262.754.754,0,0,1-.3-1.133L213.355,13.4a.768.768,0,0,1,.93-.262.754.754,0,0,1,.3,1.133" transform="translate(-153.413 -0.483)" fill="#fff"/>
    <path id="Caminho_763" data-name="Caminho 763" d="M929.471,0a20.269,20.269,0,1,0,20.117,20.092A20.282,20.282,0,0,0,929.471,0m5.118,14.273-9.356,12.861a.768.768,0,0,1-.93.262c-.451-.206-.3-1.133-.3-1.133L933.356,13.4a.768.768,0,0,1,.93-.262.754.754,0,0,1,.3,1.133" transform="translate(-737.488 -0.483)" fill="#fff"/>
    <path id="Caminho_764" data-name="Caminho 764" d="M28.129,22.712V22.7L37.784,9.422a9,9,0,0,0,1.721-5.691A.759.759,0,0,0,38.749,3H27.288a.767.767,0,0,0-.614.307L16.033,17.518a.755.755,0,0,1-1.222-.887L24.132,4.207A.754.754,0,0,0,23.527,3H.755A.755.755,0,0,0,0,3.754v37.9a.755.755,0,0,0,.755.754H38.75a.758.758,0,0,0,.756-.73,9,9,0,0,0-1.721-5.692Z" transform="translate(-0.093 -2.917)" fill="#fff"/>
  </g>
</svg>
